# xmcd
#
# Track frame offsets:
#	150
#	31506
#	91137
#	134417
#	147698
#
# Disc length: 2320 seconds
#
# Revision: 0
# Processed by: cddbd v1.5.2PL0 Copyright (c) Steve Scherf et al.
# Submitted via: audiograbber 1.83.01
#
DISCID=3d090e05
DTITLE=Grateful Dead - 94-12-11 Oakland Coliseum Arena, Oakland CA
DYEAR=1900
DGENRE=
TTITLE0=All Along The Watchtower
TTITLE1=The Days Between
TTITLE2=Sugar Magnolia
TTITLE3=Crowd
TTITLE4=Liberty
EXTD=
EXTT0=
EXTT1=
EXTT2=
EXTT3=
EXTT4=
PLAYORDER=
